<?xml version="1.0" encoding="UTF-8" standalone="no"?>
<!-- Created with Inkscape (http://www.inkscape.org/) -->

<svg
   xmlns:dc="http://purl.org/dc/elements/1.1/"
   xmlns:cc="http://creativecommons.org/ns#"
   xmlns:rdf="http://www.w3.org/1999/02/22-rdf-syntax-ns#"
   xmlns:svg="http://www.w3.org/2000/svg"
   xmlns="http://www.w3.org/2000/svg"
   xmlns:sodipodi="http://sodipodi.sourceforge.net/DTD/sodipodi-0.dtd"
   xmlns:inkscape="http://www.inkscape.org/namespaces/inkscape"
   width="150mm"
   height="150mm"
   viewBox="0 0 150 150"
   version="1.1"
   id="svg8"
   inkscape:version="0.92.1 r15371"
   sodipodi:docname="caninelogo.svg"
   inkscape:export-filename="C:\Users\ben\Desktop\caninelogo_up.png"
   inkscape:export-xdpi="101.6"
   inkscape:export-ydpi="101.6">
  <defs
     id="defs2" />
  <sodipodi:namedview
     id="base"
     pagecolor="#dcdcdc"
     bordercolor="#666666"
     borderopacity="1.0"
     inkscape:pageopacity="0"
     inkscape:pageshadow="2"
     inkscape:zoom="1.4"
     inkscape:cx="291.71176"
     inkscape:cy="282.49562"
     inkscape:document-units="mm"
     inkscape:current-layer="layer1"
     showgrid="false"
     inkscape:window-width="1920"
     inkscape:window-height="1017"
     inkscape:window-x="1272"
     inkscape:window-y="-8"
     inkscape:window-maximized="1" />
  <metadata
     id="metadata5">
    <rdf:RDF>
      <cc:Work
         rdf:about="">
        <dc:format>image/svg+xml</dc:format>
        <dc:type
           rdf:resource="http://purl.org/dc/dcmitype/StillImage" />
        <dc:title />
      </cc:Work>
    </rdf:RDF>
  </metadata>
  <g
     inkscape:label="Background"
     inkscape:groupmode="layer"
     id="layer1"
     transform="translate(0,-147)"
     style="display:inline;opacity:1">
    <circle
       style="opacity:1;fill:#ffffff;fill-opacity:1;stroke:none;stroke-width:2.84195542;stroke-linecap:butt;stroke-linejoin:miter;stroke-miterlimit:4;stroke-dasharray:none;stroke-opacity:1"
       id="path854-0"
       cx="75.030228"
       cy="222.22029"
       r="70.070152" />
  </g>
  <g
     style="display:inline;opacity:1"
     transform="translate(0,-147)"
     id="g935"
     inkscape:groupmode="layer"
     inkscape:label="Ring">
    <circle
       r="60.165047"
       cy="222.02458"
       cx="74.994804"
       id="circle933"
       style="fill:none;fill-opacity:1;stroke:#229999;stroke-width:2.44021702;stroke-linecap:butt;stroke-linejoin:miter;stroke-miterlimit:4;stroke-dasharray:none;stroke-opacity:1" />
  </g>
  <g
     inkscape:label="Dog"
     inkscape:groupmode="layer"
     id="g943"
     transform="translate(0,-147)"
     style="display:inline;opacity:1">
    <path
       style="fill:#229999;fill-opacity:1;stroke:#229999;stroke-width:0.4648819;stroke-linecap:round;stroke-linejoin:miter;stroke-miterlimit:4;stroke-dasharray:none;stroke-opacity:1"
       d="m 182.66211,97.580078 c -0.0432,-0.01099 -0.0755,0.004 -0.0977,0.04492 -10.04043,18.131532 21.68956,67.075912 22.69922,67.751952 -6.46186,0.90134 -9.47265,6.06641 -9.47265,6.06641 -15.99229,4.4612 -48.21094,-13.2207 -48.21094,-13.2207 -2.85577,15.29563 18.22656,39.60546 18.22656,39.60546 -14.84998,8.92245 -23.41797,46.5254 -23.41797,46.5254 0,0 -19.59109,58.09211 -38.92383,70.11328 -20.646565,12.83814 -26.066402,27.02343 -26.066402,27.02343 0,0 -1.262899,2.28304 10.160156,16.94141 11.423062,14.65826 34.267576,17.8457 34.267576,17.8457 l 5.14063,10.19727 c 0,0 15.99332,24.21791 61.68554,-8.28516 0,0 46.9022,-38.18446 65.07618,16.79493 0,0 3.40419,6.32429 -2.12696,19.75195 L 251.42773,414.25 c 0,0 -10.08761,16.87554 -29.73046,21.33984 l 12.76757,1.51758 c 0,0 -7.14397,9.82144 -18.75111,13.39286 l 8.46596,1.69504 c -4.43065,5.17775 -9.75334,11.51445 -12.54855,17.91518 -3.70738,6.886 -5.07287,14.24439 -4.03544,15.98912 25.89223,14.1891 79.33008,14.3125 79.33008,14.3125 l -0.0547,-0.0625 c 59.15395,-0.92345 139.07872,-29.46131 182.85547,-106.62891 -2.4274,-20.39414 -17.49218,-46.14648 -17.49218,-46.14648 0,0 3.06189,2.97687 3.87007,3.52347 2.79469,1.88988 9.76446,14.26408 9.154,12.40146 -0.24605,-0.7513 -0.0284,-5.55658 -1.42657,-9.35455 -1.39865,-3.79797 -4.71446,-10.34035 -3.80439,-10.08489 3.47252,1.21969 7.6556,1.32712 9.06529,0.96568 -3.89805,-3.58893 -9.76247,-12.89348 -12.33611,-18.48113 -2.57359,-5.58766 -3.61678,-9.55981 -5.28526,-13.47507 -23.1781,-50.94521 -39.98637,-74.20452 -39.98637,-74.20452 -29.15253,-28.238 -59.75668,-54.03956 -93.03539,-67.34123 0.84635,-7.7794 0.85561,-6.64443 3.22851,-12.87305 0,0 1.33104,-2.45609 0.63282,-1.73242 -2.85033,2.95419 -17.49219,5.64453 -17.49219,5.64453 l 6.11133,-13.43945 c -13.1195,1.40394 -18.89844,4.72851 -18.89844,4.72851 C 196.60113,122.91138 184.00212,97.920735 182.66211,97.580078 Z m 1.44336,122.064452 c 0,0 4.89207,10.32061 0.56836,16.02539 -5.02189,6.45154 -18.67383,9.2461 -18.67383,9.2461 1.00509,-22.18009 18.10547,-25.27149 18.10547,-25.27149 z"
       transform="matrix(0.26458333,0,0,0.26458333,0,147)"
       id="path939"
       inkscape:connector-curvature="0"
       sodipodi:nodetypes="ccccccccccccccccccccccccccccccccccccccccccccc" />
  </g>
</svg>
