<?xml version="1.0" encoding="UTF-8" standalone="no"?>
<!-- Created with Inkscape (http://www.inkscape.org/) -->

<svg
   xmlns:dc="http://purl.org/dc/elements/1.1/"
   xmlns:cc="http://creativecommons.org/ns#"
   xmlns:rdf="http://www.w3.org/1999/02/22-rdf-syntax-ns#"
   xmlns:svg="http://www.w3.org/2000/svg"
   xmlns="http://www.w3.org/2000/svg"
   xmlns:sodipodi="http://sodipodi.sourceforge.net/DTD/sodipodi-0.dtd"
   xmlns:inkscape="http://www.inkscape.org/namespaces/inkscape"
   width="150mm"
   height="150mm"
   viewBox="0 0 150 150"
   version="1.1"
   id="svg8"
   inkscape:version="0.91 r13725"
   sodipodi:docname="canine_logo_2.svg"
   inkscape:export-filename="C:\Users\ben\Desktop\caninelogo_up.png"
   inkscape:export-xdpi="101.6"
   inkscape:export-ydpi="101.6">
  <defs
     id="defs2" />
  <sodipodi:namedview
     id="base"
     pagecolor="#dcdcdc"
     bordercolor="#666666"
     borderopacity="1.0"
     inkscape:pageopacity="0"
     inkscape:pageshadow="2"
     inkscape:zoom="0.7"
     inkscape:cx="256.43697"
     inkscape:cy="209.71156"
     inkscape:document-units="mm"
     inkscape:current-layer="layer1"
     showgrid="false"
     inkscape:window-width="1920"
     inkscape:window-height="1006"
     inkscape:window-x="1280"
     inkscape:window-y="0"
     inkscape:window-maximized="1" />
  <metadata
     id="metadata5">
    <rdf:RDF>
      <cc:Work
         rdf:about="">
        <dc:format>image/svg+xml</dc:format>
        <dc:type
           rdf:resource="http://purl.org/dc/dcmitype/StillImage" />
        <dc:title />
      </cc:Work>
    </rdf:RDF>
  </metadata>
  <g
     inkscape:label="Background"
     inkscape:groupmode="layer"
     id="layer1"
     transform="translate(0,-147)"
     style="display:inline;opacity:1">
    <circle
       style="opacity:1;fill:#229999;fill-opacity:1;stroke:none;stroke-width:2.84195542;stroke-linecap:butt;stroke-linejoin:miter;stroke-miterlimit:4;stroke-dasharray:none;stroke-opacity:1"
       id="path854-0"
       cx="75.030228"
       cy="222.22029"
       r="70.070152"
       inkscape:export-xdpi="185.60001"
       inkscape:export-ydpi="185.60001" />
    <path
       style="display:inline;opacity:1;fill:#ffffff;fill-opacity:1;stroke:#229999;stroke-width:0.13508314;stroke-linecap:round;stroke-linejoin:miter;stroke-miterlimit:4;stroke-dasharray:none;stroke-opacity:1"
       d="m 45.769344,169.11812 c -0.01256,-0.003 -0.02193,9.4e-4 -0.02839,0.0131 -2.917499,5.26858 6.302449,19.49059 6.59583,19.68704 -1.877655,0.2619 -2.752516,1.76275 -2.752516,1.76275 -4.646964,1.29631 -14.008903,-3.84162 -14.008903,-3.84162 -0.829816,4.44454 5.296186,11.50837 5.296186,11.50837 -4.315036,2.59266 -6.804681,13.51912 -6.804681,13.51912 0,0 -5.692684,16.88013 -11.3103,20.37319 -5.999379,3.73045 -7.574249,7.85233 -7.574249,7.85233 0,0 -0.366968,0.6634 2.952288,4.92276 3.319259,4.25932 9.957309,5.18552 9.957309,5.18552 l 1.493739,2.96307 c 0,0 4.647263,7.03712 17.924289,-2.40746 0,0 13.628613,-11.09546 18.909522,4.88019 0,0 0.989172,1.83768 -0.618041,5.73942 l -0.0505,-0.14131 c 0,0 -2.931208,4.90361 -8.638933,6.20083 l 3.709938,0.44097 c 0,0 -2.07586,2.85386 -5.448608,3.89163 l 2.459999,0.49253 c -1.287439,1.50453 -2.834079,3.34582 -3.646297,5.20571 -1.077274,2.0009 -1.47405,4.13907 -1.1726,4.64605 7.523642,4.12299 23.051354,4.15885 23.051354,4.15885 l -0.01589,-0.0182 c 17.18867,-0.26834 40.41283,-8.56073 53.13327,-30.98372 -0.70533,-5.92603 -5.08278,-13.40903 -5.08278,-13.40903 0,0 0.8897,0.86501 1.12454,1.02384 0.81206,0.54915 2.83731,4.14479 2.65993,3.60356 -0.0715,-0.21832 -0.008,-1.61461 -0.41454,-2.71821 -0.40641,-1.10359 -1.3699,-3.00465 -1.10547,-2.93041 1.00905,0.35441 2.22455,0.38562 2.63417,0.2806 -1.13268,-1.04285 -2.83674,-3.74653 -3.58457,-5.37016 -0.74783,-1.62364 -1.05095,-2.77784 -1.53576,-3.91552 -6.735,-14.80341 -11.61905,-21.562 -11.61905,-21.562 -8.471,-8.20525 -17.363828,-15.70255 -27.033795,-19.56768 0.245929,-2.26051 0.248619,-1.93071 0.938127,-3.74059 0,0 0.386766,-0.71369 0.183882,-0.5034 -0.828238,0.85841 -5.082797,1.64016 -5.082797,1.64016 l 1.775798,-3.90517 c -3.812198,0.40794 -5.491415,1.37399 -5.491415,1.37399 -27.729763,-8.99045 -31.390721,-16.25212 -31.780095,-16.3511 z m 0.419402,35.4689 c 0,0 1.421516,2.99892 0.165153,4.65659 -1.459236,1.87465 -5.426152,2.68667 -5.426152,2.68667 0.292055,-6.44497 5.260999,-7.34326 5.260999,-7.34326 z"
       id="path939"
       inkscape:connector-curvature="0"
       sodipodi:nodetypes="ccccccccccccccccccccccccccccccccccccccccccccc"
       inkscape:export-xdpi="185.60001"
       inkscape:export-ydpi="185.60001" />
  </g>
</svg>
